{"title":"Winter Ridge 2018 720p WEB-DL x264 ESub [MW]","magnet":"magnet:?xt=urn:btih:238b84e64e56e7577d447190bb29810f722bd6ff&dn=Winter+Ridge+2018+720p+WEB-DL+x264+ESub+%5BMW%5D&tr=udp%3A%2F%2Ftracker.leechers-paradise.org%3A6969&tr=udp%3A%2F%2Fzer0day.ch%3A1337&tr=udp%3A%2F%2Fopen.demonii.com%3A1337&tr=udp%3A%2F%2Ftracker.coppersurfer.tk%3A6969&tr=udp%3A%2F%2Fexodus.desync.com%3A6969","uploader":"MFreaky","categoryP":"video","categoryS":"hd___movies","size":"850248123","seeders":"13","leechers":"21","description":" <a href=\"https://pichub.site/image/Ekiiu\" rel=\"nofollow\" target=\"_NEW\">https://pichub.site/image/Ekiiu</a> <a href=\"\nhttps://pichub.site/image/EkhJ9\" rel=\"nofollow\" target=\"_NEW\">\nhttps://pichub.site/image/EkhJ9</a> <a href=\"\nhttps://pichub.site/image/EkyXd\" rel=\"nofollow\" target=\"_NEW\">\nhttps://pichub.site/image/EkyXd</a> <a href=\"\nhttps://pichub.site/image/EkwKv\" rel=\"nofollow\" target=\"_NEW\">\nhttps://pichub.site/image/EkwKv</a> <a href=\"\nhttps://pichub.site/image/EkV9k\" rel=\"nofollow\" target=\"_NEW\">\nhttps://pichub.site/image/EkV9k</a>\r\n\r\nIMDB <a href=\"\nhttps://www.imdb.com/title/tt5973658/\" rel=\"nofollow\" target=\"_NEW\">\nhttps://www.imdb.com/title/tt5973658/</a>\r\n\r\nVideo\r\nFormat                                   : AVC\r\nFormat/Info                              : Advanced Video Codec\r\nFormat profile                           : High@L4.1\r\nFormat settings                          : CABAC / 4 Ref Frames\r\nFormat settings, CABAC                   : Yes\r\nFormat settings, RefFrames               : 4 frames\r\nCodec ID                                 : V_MPEG4/ISO/AVC\r\nDuration                                 : 1 h 26 min\r\nBit rate                                 : 1 200 kb/s\r\nWidth                                    : 1 280 pixels\r\nHeight                                   : 532 pixels\r\nDisplay aspect ratio                     : 2.40:1\r\nFrame rate mode                          : Constant\r\nFrame rate                               : 24.000 FPS\r\nColor space                              : YUV\r\nChroma subsampling                       : 4:2:0\r\nBit depth                                : 8 bits\r\nScan type                                : Progressive\r\nBits/(Pixel*Frame)                       : 0.073\r\nStream size                              : 730 MiB (90%)\r\nWriting library                          : x264 core 155 r2901 7d0ff22\r\n\r\nAudio\r\nFormat                                   : AAC\r\nFormat/Info                              : Advanced Audio Codec\r\nFormat profile                           : LC\r\nCodec ID                                 : A_AAC-2\r\nDuration                                 : 1 h 26 min\r\nBit rate                                 : 128 kb/s\r\nChannel(s)                               : 2 channels\r\nChannel positions                        : Front: L R\r\nSampling rate                            : 48.0 kHz\r\nFrame rate                               : 46.875 FPS (1024 SPF)\r\nCompression mode                         : Lossy\r\nStream size                              : 79.4 MiB (10%)\r\nLanguage                                 : English","last_updated":"2018-09-19T12:24:30.748Z","parsed":{"xt":"urn:btih:238b84e64e56e7577d447190bb29810f722bd6ff","dn":"Winter Ridge 2018 720p WEB-DL x264 ESub [MW]","tr":["udp://exodus.desync.com:6969","udp://open.demonii.com:1337","udp://tracker.coppersurfer.tk:6969","udp://tracker.leechers-paradise.org:6969","udp://zer0day.ch:1337"],"infoHash":"238b84e64e56e7577d447190bb29810f722bd6ff","infoHashBuffer":{"type":"Buffer","data":[35,139,132,230,78,86,231,87,125,68,113,144,187,41,129,15,114,43,214,255]},"name":"Winter Ridge 2018 720p WEB-DL x264 ESub [MW]","announce":["udp://exodus.desync.com:6969","udp://open.demonii.com:1337","udp://tracker.coppersurfer.tk:6969","udp://tracker.leechers-paradise.org:6969","udp://zer0day.ch:1337"],"urlList":[]}}